<svg width="32" height="36" viewBox="0 0 32 36" fill="none" xmlns="http://www.w3.org/2000/svg">
<path d="M18.977 23.0454L17.9155 23.6173L19.0702 23.9644C23.7687 25.3769 27.2905 29.9534 27.491 35.5H4.50902C4.70952 29.9534 8.23129 25.3769 12.9298 23.9644L14.0845 23.6173L13.023 23.0454C10.9651 21.9366 9.55263 19.7181 9.55263 17.15C9.55263 13.4637 12.4528 10.5 16 10.5C19.5472 10.5 22.4474 13.4637 22.4474 17.15C22.4474 19.7181 21.0349 21.9366 18.977 23.0454ZM26.6712 35.2H27.2247L27.1686 34.6493C26.5509 28.5908 21.81 23.8 16 23.8C10.19 23.8 5.44912 28.5908 4.83142 34.6493L4.77527 35.2H5.32884H26.6712ZM16 10.8C12.5759 10.8 9.81579 13.6616 9.81579 17.15C9.81579 20.6384 12.5759 23.5 16 23.5C19.4241 23.5 22.1842 20.6384 22.1842 17.15C22.1842 13.6616 19.4241 10.8 16 10.8Z" fill="#2FD7CD" stroke="white"/>
</svg>
