<svg width="18" height="18" viewBox="0 0 18 18" fill="none" xmlns="http://www.w3.org/2000/svg">
<path fill-rule="evenodd" clip-rule="evenodd" d="M12.8945 10.6873C12.683 10.5819 11.6432 10.0727 11.4493 10.0025C11.2554 9.93226 11.1145 9.89713 10.9735 10.1078C10.8325 10.3186 10.4271 10.7927 10.3038 10.9332C10.1804 11.0736 10.057 11.0912 9.84554 10.9858C9.63404 10.8805 8.95257 10.6582 8.14475 9.94109C7.51602 9.38301 7.09155 8.69366 6.96815 8.48294C6.8448 8.27223 6.95502 8.15833 7.06093 8.05337C7.15603 7.95911 7.27239 7.80756 7.37814 7.68464C7.4839 7.56171 7.51915 7.47392 7.58965 7.33347C7.66015 7.19298 7.6249 7.07005 7.572 6.96469C7.51915 6.85933 7.09618 5.82331 6.91993 5.40188C6.74828 4.99145 6.57389 5.04699 6.44408 5.04055C6.32084 5.03444 6.17972 5.03314 6.03872 5.03314C5.89772 5.03314 5.66861 5.08584 5.47471 5.29652C5.28086 5.50724 4.7345 6.01651 4.7345 7.05249C4.7345 8.08851 5.49236 9.08939 5.59811 9.22989C5.70386 9.37038 7.08948 11.4964 9.21107 12.4081C9.71568 12.625 10.1097 12.7545 10.4168 12.8515C10.9235 13.0117 11.3845 12.9891 11.7489 12.9349C12.1553 12.8745 13.0002 12.4257 13.1765 11.934C13.3527 11.4424 13.3527 11.0209 13.2999 10.9332C13.247 10.8454 13.106 10.7927 12.8945 10.6873ZM9.03556 15.9312H9.03271C7.77029 15.9307 6.5321 15.5932 5.45195 14.9552L5.19503 14.8035L2.53232 15.4986L3.24305 12.9149L3.07575 12.6501C2.37152 11.5353 1.99958 10.2468 2.00011 8.92384C2.00165 5.06341 5.15771 1.92269 9.03836 1.92269C10.9175 1.92342 12.6839 2.65267 14.0122 3.97607C15.3405 5.29951 16.0716 7.05867 16.0708 8.92951C16.0693 12.7902 12.9132 15.9312 9.03556 15.9312ZM15.0231 2.97049C13.425 1.37821 11.2998 0.50089 9.03547 0.5C4.37 0.5 0.572859 4.27871 0.570988 8.92336C0.570378 10.4081 0.960123 11.8573 1.70083 13.1348L0.5 17.5L4.98715 16.3286C6.22347 16.9997 7.61542 17.3534 9.0321 17.354H9.03555C13.7006 17.354 17.4981 13.5748 17.5 8.93008C17.5009 6.67921 16.6213 4.56273 15.0231 2.97049Z" fill="white"/>
</svg>
