<svg width="27" height="32" viewBox="0 0 27 32" fill="none" xmlns="http://www.w3.org/2000/svg">
<path d="M17.7094 10.7941L17.8543 11.041H18.1406H24.1502L20.9582 28.4878H6.04182L2.84978 11.041H8.85938H9.14565L9.29058 10.7941L13.5 3.62296L17.7094 10.7941ZM23.8502 11.9486L23.9582 11.3586H23.3584H17.5489H9.45113H3.64162H3.04184L3.14979 11.9486L6.04273 27.7602L6.11774 28.1702H6.53456H20.4654H20.8823L20.9573 27.7602L23.8502 11.9486ZM13.9312 4.70776L13.5 3.97314L13.0688 4.70776L9.79336 10.2879L9.3513 11.041H10.2246H16.7754H17.6487L17.2066 10.2879L13.9312 4.70776Z" fill="#2FD7CD" stroke="white"/>
<path d="M11.1875 22.5583V16.9702H11.3125V22.5583H11.1875Z" fill="#2FD7CD" stroke="white"/>
<path d="M15.6875 22.5583V16.9702H15.8125V22.5583H15.6875Z" fill="#2FD7CD" stroke="white"/>
</svg>
